<svg id="LCC" xmlns="http://www.w3.org/2000/svg" viewBox="0 0 30.02 47.22"><defs><style>.cls-1{fill:#f9f9f9;}.cls-2{fill:#010101;}.cls-3,.cls-4,.cls-5{fill:#231f20;}.cls-3{stroke:#000;stroke-width:0.1px;}.cls-3,.cls-4{stroke-miterlimit:10;}.cls-4{stroke:#fff;stroke-width:0.5px;}</style></defs><path class="cls-1" d="M.7,12.33a8.4,8.4,0,0,1,2.47-.1,9,9,0,0,1,2.08.71v21.3l8.65,7.48V47.8h4.34l0-5.89,8.58-8.32.06-20.49,3.4-.31.12-.23a.35.35,0,0,1-.21-.3l-4-10.88a1.92,1.92,0,0,0-2.06-.2,1.77,1.77,0,0,1-1.92-.09,5.06,5.06,0,0,0-1.73.12s-.05.35-1.61.15a12.66,12.66,0,0,0-2.38-.27A6.07,6.07,0,0,1,13,1.16a6.59,6.59,0,0,0-3,.15,3.25,3.25,0,0,1-2.26-.22,2.47,2.47,0,0,0-2.3.15l-.27.12L.44,12.24Z" transform="translate(-0.44 -0.58)"/><path class="cls-1" d="M.74,12a8.35,8.35,0,0,1,2.46-.1,8.55,8.55,0,0,1,2.09.71v21.3l8.65,7.48v6.08h4.25V41.65l8.64-8.37V12.79l3.63,0v-.62a.48.48,0,0,1-.24-.33L26.28,1.11A2.15,2.15,0,0,0,24.1.87,1.77,1.77,0,0,1,22.18.78,5.12,5.12,0,0,0,20.44.9s-.05.35-1.6.15A12.66,12.66,0,0,0,16.46.78,6.07,6.07,0,0,1,13,.85,6.59,6.59,0,0,0,10,1,3.28,3.28,0,0,1,7.75.78a2.47,2.47,0,0,0-2.3.15l-.26.12L.47,12.26Z" transform="translate(-0.44 -0.58)"/><path class="cls-2" d="M30.28,12.57l-3.54.29c-.12,3.47,0,6.91-.07,10.34s0,6.86,0,10.27L18.1,41.76v5.8l-3.94,0c-.05-2,0-4,0-6L5.49,34.05V12.71a14,14,0,0,0-2.27-.82A12.1,12.1,0,0,0,.74,12C2.33,8.41,4,4.87,5.51,1.3l1-.34H7.63a2.51,2.51,0,0,0,2.13.45c.63-.08,1.25-.23,1.88-.26a4.08,4.08,0,0,1,1.47.15,4.5,4.5,0,0,0,2.67,0,2.93,2.93,0,0,1,1-.19c1,.09,1.86.21,2.77.37a2,2,0,0,0,1.35-.15,1.65,1.65,0,0,1,1.19-.17,4.3,4.3,0,0,0,2.36,0,1.51,1.51,0,0,1,.42,0c.88-.06,1.17.14,1.48,1L30,11.89a5,5,0,0,0,.3.56ZM16,8.11h0c.2.66.38,1.33.58,1.93.53,1.62.53,1.62,1,1.82a15.07,15.07,0,0,0-1-2.76A9.84,9.84,0,0,0,16,8.11ZM8.22,13.2v4.54c0,2.89,0,5.78.08,8.61A10.19,10.19,0,0,0,8.43,28a2.76,2.76,0,0,0,3,2.34,5.4,5.4,0,0,0,.9-.11,3.19,3.19,0,0,1,1.93.21c.49.22,1,.37,1.54.55a5,5,0,0,1,4-.71h.17a2.26,2.26,0,0,0,2.38-1.41,4.13,4.13,0,0,0,.33-1.19c.14-1.51.31-3,.33-4.53.05-3.18,0-6.36,0-9.54a4.93,4.93,0,0,0-.05-.54c-.45.12-.84.25-1.24.33a13.21,13.21,0,0,1-5.42-.2,4.83,4.83,0,0,0-1.47,0c-.83.08-1.63.29-2.45.38A7.46,7.46,0,0,1,8.22,13.2Zm15-.76V31.36c-1,.16-14.56.12-15.25,0V12.45H6.87c-.16,1.65-.09,19.6.07,20.15H24.35c.15-1,.11-19.57-.05-20.18Zm-9,25.79v-4a25.77,25.77,0,0,0-4.89.07Zm4-4.07v4.06l5-4.06Zm9.3-22.27c-.08-.26-.11-.41-.16-.55-.59-1.84-1.2-3.67-1.8-5.5L24.37,2.33c-.07-.2-.09-.46-.48-.3.25.74.49,1.49.73,2.24.75,2.32,1.49,4.61,2.26,6.91C27,11.43,26.93,11.83,27.49,11.89Zm1.08-.09c-.07-.22-.13-.45-.21-.67-.66-2-1.32-4-2-6.05-.3-1-.61-1.83-.91-2.74-.06-.22-.12-.42-.48-.33.05.15.07.27.12.39.76,2.36,1.54,4.72,2.31,7.07l.7,2.12c.06.2.13.37.45.24Zm-10-9.87-.12.12q1.18,3.62,2.36,7.22c.26.79.51,1.57.78,2.36.07.21.19.35.44.15l-.09-.31L19.27,3.38c-.13-.4-.25-.79-.4-1.18A2.85,2.85,0,0,0,18.55,1.93Zm-9.75,0L8.57,2l.55,1.7c.82,2.51,1.63,5,2.46,7.53.08.25.08.55.44.63A87.31,87.31,0,0,0,9,2.26,3,3,0,0,0,8.8,1.93ZM19.52,2c.83,2.51,1.64,5,2.44,7.43l.73,2.19c.08.24.19.33.43.14L21.26,6.11,20,2.36c-.06-.2-.07-.46-.51-.34Zm-12,0c1,3,1.93,6,2.89,8.91a6.48,6.48,0,0,0,.26.78c.05.09.23.11.45.2C10.46,10,9.88,8.27,9.31,6.52L8,2.36c-.07-.2-.08-.46-.51-.34Zm18.67,9.87.19-.06a4.34,4.34,0,0,0-.09-.52c-.48-1.47-1-2.94-1.43-4.41s-1-2.95-1.47-4.47c-.09-.17-.09-.5-.57-.43,1.06,3.23,2.09,6.41,3.14,9.63A1.94,1.94,0,0,0,26.14,11.89Zm-5.45,0,.19-.08c-.05-.18-.07-.36-.13-.53-.4-1.26-.8-2.52-1.22-3.77L17.88,2.58c-.07-.24-.07-.55-.42-.63a78.43,78.43,0,0,0,2.9,9.51,2.43,2.43,0,0,0,.26.44Zm-.84,0c-.07-.27-.11-.46-.17-.62Q18.83,8.62,18,6c-.4-1.22-.81-2.46-1.2-3.68-.08-.22-.14-.42-.5-.32.27.84.54,1.64.8,2.44.73,2.25,1.46,4.51,2.21,6.74.08.24,0,.66.59.71Zm4.17,0,.16-.1a1.47,1.47,0,0,0-.11-.46L21.94,4.81c-.28-.83-.54-1.67-.83-2.5C21,2.12,21,1.83,20.69,2a.43.43,0,0,0,0,.16q1.51,4.71,3,9.45c0,.12.18.22.28.32Zm-14.26,0,.16-.1a1.49,1.49,0,0,0-.12-.46L7,2.66a3.13,3.13,0,0,0-.19-.54C6.71,2,6.56,2,6.43,2v.21Q8,6.89,9.5,11.59c0,.13.19.23.28.33Zm15.54,0c-.09-.29-.13-.51-.2-.71C24.37,9,23.63,6.75,22.9,4.53c-.25-.77-.5-1.53-.74-2.29-.07-.22-.18-.33-.45-.17.38,1.2.77,2.4,1.14,3.59.62,1.93,1.23,3.73,1.85,5.58.09.24,0,.64.59.67ZM9.61,2l2.69,8.21c.26-.43.26-.43.15-.75l-.76-2.2c-.51-1.57-1-3.14-1.54-4.7C10.13,2.33,10.18,1.93,9.61,2Zm8.47,8.37.11,0a1.75,1.75,0,0,0-.09-.38L16.71,5.68C16.33,4.56,16,3.44,15.6,2.31c-.07-.2-.11-.46-.45-.28a1.74,1.74,0,0,0,0,.22C16,4.6,16.73,7,17.52,9.3A5.87,5.87,0,0,0,18.08,10.35ZM13,8.85c.35-.24.25-.45.18-.66l-.57-1.73c-.44-1.31-.87-2.66-1.3-4-.08-.21-.07-.51-.55-.45Zm-1.1-6.91a41.75,41.75,0,0,0,2.06,6c.06-.11.16-.23.14-.29C13.43,5.78,12.8,3.9,12.12,2,12.15,2,12,2,11.85,1.94ZM14.58,7l.13-.06a2.24,2.24,0,0,0,0-.73c-.41-1.34-.86-2.68-1.32-4-.07-.24-.21-.3-.44-.12Q13.75,4.53,14.58,7ZM15.9,7,16,6.88,14.58,2.37c-.07-.19-.1-.44-.43-.38a1,1,0,0,0,0,.25C14.6,3.63,15,5,15.51,6.39a2.68,2.68,0,0,0,.41.64Zm.66,4.9L15.13,7.57c-.19.1-.28.2-.26.27.43,1.33.87,2.65,1.33,4C16.2,11.89,16.32,11.89,16.56,11.89Zm-1.28,0a10.08,10.08,0,0,0-1.14-3.42c0,.12-.12.24-.09.3.33,1,.66,2,1,3.05l.23.07ZM13.47,9.25c-.25.51-.18,1,.33,2.25.08.17.07.48.49.33ZM13,11.05l-.19.75.44.12Z" transform="translate(-0.44 -0.58)"/><path class="cls-3" d="M14.94,18.64h0a2,2,0,0,1-1.44.5,2.56,2.56,0,0,1-.82-.13,3.32,3.32,0,0,1-.83.11,2.26,2.26,0,0,1-.52,0c-.07,0-.11,0-.11-.12s.16-.19.49-.19A3.37,3.37,0,0,1,12.8,19a2.94,2.94,0,0,0,1.43-1.33,3.86,3.86,0,0,1-.84.09,1.21,1.21,0,0,1-.8-.21.71.71,0,0,1-.23-.51,1.16,1.16,0,0,1,.69-1,3.36,3.36,0,0,1,1.62-.38h0a4,4,0,0,0-1.1.18,1.92,1.92,0,0,0-.87.54,1.14,1.14,0,0,0-.3.7.58.58,0,0,0,.23.44,1.29,1.29,0,0,0,.76.19,4,4,0,0,0,.85-.1,4.38,4.38,0,0,1,1.22-1.35,2,2,0,0,1,1-.54.28.28,0,0,1,.21.07.22.22,0,0,1,.07.19c0,.24-.25.52-.74.86a4.61,4.61,0,0,1-1.56.67c-.21.3-.36.51-.46.63a2.9,2.9,0,0,1-.36.34,1.7,1.7,0,0,1-.39.27,2.35,2.35,0,0,1-.44.17,3,3,0,0,0,.79.13,2.08,2.08,0,0,0,.6-.09A1.63,1.63,0,0,0,14.94,18.64ZM12.65,19a3.88,3.88,0,0,0-1-.18c-.29,0-.43.05-.43.16s0,.06.1.09a2.09,2.09,0,0,0,.5,0A2.33,2.33,0,0,0,12.65,19Zm1.93-1.46a4.53,4.53,0,0,0,1.6-.72q.66-.49.66-.81a.24.24,0,0,0-.07-.16.36.36,0,0,0-.26-.09,1.22,1.22,0,0,0-.62.22,3.44,3.44,0,0,0-.76.66A4.62,4.62,0,0,0,14.58,17.53Z" transform="translate(-0.44 -0.58)"/><path class="cls-3" d="M16.21,18.13h.21l-.69.73a.23.23,0,0,0-.1.16.08.08,0,0,0,0,.07h.06a.34.34,0,0,0,.18-.09,4.81,4.81,0,0,0,.51-.4h0a5.69,5.69,0,0,1-.53.41.36.36,0,0,1-.19.08.09.09,0,0,1-.1,0,.17.17,0,0,1,0-.1.54.54,0,0,1,.11-.27h0a1.59,1.59,0,0,1-.69.42.14.14,0,0,1-.12-.06.22.22,0,0,1,0-.16c0-.2.12-.37.39-.53a1.36,1.36,0,0,1,.67-.24c.09,0,.14,0,.14.11v.07Zm-.21.12c0-.06,0-.09-.12-.09a1.26,1.26,0,0,0-.61.35q-.39.36-.39.51a.06.06,0,0,0,0,.06.09.09,0,0,0,.07,0,.5.5,0,0,0,.24-.09,2.32,2.32,0,0,0,.4-.3,2.87,2.87,0,0,0,.31-.29A.56.56,0,0,0,16,18.25Z" transform="translate(-0.44 -0.58)"/><path class="cls-3" d="M17.77,18.13H18l-1.2,1.19a3.34,3.34,0,0,0,1-.56l.17-.12h0a3.39,3.39,0,0,1-.7.49,2.57,2.57,0,0,1-.52.21,7.13,7.13,0,0,1-.86.79.8.8,0,0,1-.47.18.21.21,0,0,1-.11,0,.06.06,0,0,1,0-.06c0-.12.14-.27.42-.46a2.56,2.56,0,0,1,.8-.38l.53-.54h0a1.19,1.19,0,0,1-.56.28.17.17,0,0,1-.14-.07.22.22,0,0,1-.06-.15.57.57,0,0,1,.2-.36,1.6,1.6,0,0,1,.49-.32,1.31,1.31,0,0,1,.47-.12h.11a.09.09,0,0,1,0,.07v.12Zm-1.26,1.31a2.19,2.19,0,0,0-.86.4c-.22.17-.33.29-.33.37s0,.08.13.08a.71.71,0,0,0,.28-.09,5,5,0,0,0,.53-.5ZM16.38,19a.12.12,0,0,0,.1.12h0a1.26,1.26,0,0,0,.64-.37c.29-.24.44-.41.44-.51s0-.1-.14-.1a.52.52,0,0,0-.27.1,1.82,1.82,0,0,0-.38.29,1.88,1.88,0,0,0-.32.31.29.29,0,0,0-.11.16Z" transform="translate(-0.44 -0.58)"/><path class="cls-3" d="M19.05,18.64h0a.25.25,0,0,1-.18.08.14.14,0,0,1-.14,0,3,3,0,0,1-.39.32.63.63,0,0,1-.35.13.21.21,0,0,1-.13-.05.23.23,0,0,1,0-.14.55.55,0,0,1,.19-.41,1.48,1.48,0,0,1,.43-.31,1.24,1.24,0,0,1,.39-.1.12.12,0,0,1,.14.13.68.68,0,0,1-.23.4.26.26,0,0,0,.13.06A.3.3,0,0,0,19.05,18.64ZM19,18.25a.09.09,0,0,0,0-.07h-.07c-.13,0-.32.12-.57.37s-.38.43-.38.5a.09.09,0,0,0,0,.07H18a.56.56,0,0,0,.3-.12,1,1,0,0,0,.34-.26,1.56,1.56,0,0,0,.23-.28.35.35,0,0,0,.07-.23Z" transform="translate(-0.44 -0.58)"/><path class="cls-3" d="M19.07,18.64h0l.91-.76h0a.8.8,0,0,0-.13.13.21.21,0,0,0,0,.11v.35a.52.52,0,0,1-.14.34l.24-.19h0a1.61,1.61,0,0,1-.9.49.3.3,0,0,1-.15-.05.14.14,0,0,1-.06-.12.21.21,0,0,1,0-.11h.09A.13.13,0,0,1,19,19h-.07c0,.07,0,.11.14.11a.78.78,0,0,0,.44-.29,1,1,0,0,0,.27-.6V18Z" transform="translate(-0.44 -0.58)"/><path class="cls-3" d="M11.48,21.79l-.39.4a1.75,1.75,0,0,0-.63,1,.38.38,0,0,0,.15.3.67.67,0,0,0,.45.14,2.2,2.2,0,0,0,.84-.2,2.26,2.26,0,0,0,.67-.43.7.7,0,0,0,.23-.45.22.22,0,0,0-.12-.21.39.39,0,0,0-.26-.09,1.89,1.89,0,0,0-.88.3,2.37,2.37,0,0,0-.78.73h0a2.37,2.37,0,0,1,.78-.73,1.83,1.83,0,0,1,.9-.31.39.39,0,0,1,.29.09.3.3,0,0,1,.12.22c0,.28-.21.53-.62.76a2.3,2.3,0,0,1-1.11.35.83.83,0,0,1-.55-.16.53.53,0,0,1-.17-.41,1,1,0,0,1,.06-.35,2.15,2.15,0,0,1,.28-.49,2.24,2.24,0,0,1,.42-.45H11a1.16,1.16,0,0,1-.77-.22.66.66,0,0,1-.26-.52,1,1,0,0,1,.54-.89A2.72,2.72,0,0,1,12,19.84h0a2.19,2.19,0,0,0-1.5.45,1.18,1.18,0,0,0-.52.83.64.64,0,0,0,.26.45,1.12,1.12,0,0,0,.73.21h.2a6.59,6.59,0,0,1,1.57-1.21A3.05,3.05,0,0,1,14.23,20a.34.34,0,0,1,.24.07.21.21,0,0,1,.1.18c0,.16-.14.35-.41.56a4.66,4.66,0,0,1-1.18.59A6,6,0,0,1,11.48,21.79Zm0,0A6.13,6.13,0,0,0,13,21.44a3.54,3.54,0,0,0,1.13-.61c.24-.21.36-.38.36-.52a.16.16,0,0,0-.08-.14.43.43,0,0,0-.22-.06,2.11,2.11,0,0,0-1.08.36,7.36,7.36,0,0,0-1.19,1Z" transform="translate(-0.44 -0.58)"/><path class="cls-3" d="M14.09,23.11h0a.29.29,0,0,1-.21.09.17.17,0,0,1-.15-.05,2.51,2.51,0,0,1-.44.35.67.67,0,0,1-.38.15.16.16,0,0,1-.13-.06.25.25,0,0,1-.06-.16.66.66,0,0,1,.21-.45,1.67,1.67,0,0,1,.47-.33,1.16,1.16,0,0,1,.44-.12c.1,0,.15,0,.15.14a.78.78,0,0,1-.25.45.18.18,0,0,0,.14.06A.33.33,0,0,0,14.09,23.11ZM14,22.68a.06.06,0,1,0-.08-.08c-.14,0-.35.13-.63.41s-.42.46-.42.56a.09.09,0,0,0,0,.07h.08a.77.77,0,0,0,.33-.12,1.57,1.57,0,0,0,.38-.3,2.35,2.35,0,0,0,.26-.29A.73.73,0,0,0,14,22.68Z" transform="translate(-0.44 -0.58)"/><path class="cls-3" d="M14.11,23.13h0l.43-.37.21-.17H15l-.21.22-.61.63a.2.2,0,0,0-.08.12h0a0,0,0,0,0,.07.07.86.86,0,0,0,.35-.16,3.39,3.39,0,0,0,.42-.33l.35-.33.3-.27h.27c-.25.24-.44.44-.59.61l-.18.2c-.09.1-.14.16-.14.2s0,.08.11.08a.55.55,0,0,0,.31-.14c.18-.13.35-.26.52-.41h0a5.91,5.91,0,0,1-.63.49.63.63,0,0,1-.23.08.12.12,0,0,1-.1,0,.15.15,0,0,1,0-.13.82.82,0,0,1,.28-.49l.27-.27h0c-.63.63-1.06,1-1.27,1a.17.17,0,0,1-.1,0,.16.16,0,0,1,0-.14.52.52,0,0,1,.19-.36l.42-.43h0Z" transform="translate(-0.44 -0.58)"/><path class="cls-3" d="M15.91,23.11a2,2,0,0,1,.88-.54.14.14,0,0,1,.09,0,.09.09,0,0,1,0,.1.66.66,0,0,1-.23.42h0c.43-.39.72-.57.89-.57s.19.05.19.15a.4.4,0,0,1-.08.23,1.48,1.48,0,0,1-.28.28,2.55,2.55,0,0,0-.24.23.14.14,0,0,0-.05.08v.06h.06a.62.62,0,0,0,.27-.09,2.16,2.16,0,0,0,.4-.27L18,23h0a1.68,1.68,0,0,1-.87.53.12.12,0,0,1-.1,0,.18.18,0,0,1-.05-.12.33.33,0,0,1,0-.14.42.42,0,0,1,.08-.12l.2-.19.12-.1c.15-.13.21-.21.21-.26s0-.07-.1-.07a1.11,1.11,0,0,0-.57.29c-.29.23-.57.48-.84.74h-.14l.75-.75c.12-.12.18-.2.18-.23s0-.07-.07-.07a2,2,0,0,0-.86.54Z" transform="translate(-0.44 -0.58)"/><path class="cls-3" d="M18.08,23.13h0l.75-.62.32-.25h0l.48-.48h.23l-.45.49h0l-1,1-.19.18a.11.11,0,0,0,0,.08.11.11,0,0,0,0,.08h.08c.14,0,.43-.19.85-.56h0c-.44.38-.73.57-.88.57a.16.16,0,0,1-.13-.06.29.29,0,0,1,0-.13.84.84,0,0,1,.28-.51l.56-.57h0Z" transform="translate(-0.44 -0.58)"/><path class="cls-3" d="M19.19,23.13h0l.43-.35.13-.11a.18.18,0,0,1-.08-.15.11.11,0,0,1,0-.11.11.11,0,0,1,.08,0h.07a.11.11,0,0,1,0,.08.12.12,0,0,1-.11.11h-.05v0a.17.17,0,0,0,.1,0,.86.86,0,0,0,.23-.06l.15.16a1.27,1.27,0,0,1-.21.25,3.34,3.34,0,0,0-.33.32l-.18.2a0,0,0,0,0,0,.07c0,.05,0,.08.08.08a.9.9,0,0,0,.32-.13,3.28,3.28,0,0,0,.56-.42h0c-.43.36-.72.55-.91.55a.11.11,0,0,1-.07-.21.37.37,0,0,1,.06-.21,1.83,1.83,0,0,1,.3-.32,3,3,0,0,0,.3-.32h0a.74.74,0,0,1-.21,0h-.06Z" transform="translate(-0.44 -0.58)"/><path class="cls-3" d="M20.47,23.13h0l.26-.21a1.78,1.78,0,0,1,.31-.23.77.77,0,0,1,.29-.1.07.07,0,0,1,.1.1.49.49,0,0,1-.08.23c-.15.15-.3.29-.47.43s-.15.16-.15.2,0,.07.09.07a.61.61,0,0,0,.31-.13,5.62,5.62,0,0,0,.71-.58l.26-.24a.63.63,0,0,0,.11-.12h.27L21.32,23.8a3.1,3.1,0,0,0,1.19-.69h0a2.83,2.83,0,0,1-1.19.73l-.29.31c-.17.17-.37.35-.59.53a1.05,1.05,0,0,1-.6.26c-.12,0-.16,0-.16-.12s.11-.25.36-.42a3.53,3.53,0,0,1,1-.46l1.11-1.17h0l-.2.19-.25.23-.34.27a2.2,2.2,0,0,1-.32.21.59.59,0,0,1-.19,0h-.09a.12.12,0,0,1,0-.12.59.59,0,0,1,.28-.45l.34-.31a.23.23,0,0,0,.06-.12.05.05,0,0,0-.06,0,1.17,1.17,0,0,0-.24.09,3.27,3.27,0,0,0-.37.28Zm.47.87a2.29,2.29,0,0,0-.87.39c-.28.18-.41.33-.41.43s0,.09.13.09a.59.59,0,0,0,.36-.13,3.49,3.49,0,0,0,.56-.53Z" transform="translate(-0.44 -0.58)"/><path class="cls-3" d="M13.9,26.24l-.27.31a1.41,1.41,0,0,0-.44.81.31.31,0,0,0,.11.23.41.41,0,0,0,.31.09,1.22,1.22,0,0,0,.56-.14,1.32,1.32,0,0,0,.47-.34.53.53,0,0,0,.15-.34.25.25,0,0,0-.08-.18.49.49,0,0,0-.17-.06,1.16,1.16,0,0,0-.61.24,1.89,1.89,0,0,0-.53.56h0a1.7,1.7,0,0,1,.54-.56,1.1,1.1,0,0,1,.62-.25.32.32,0,0,1,.19.07.25.25,0,0,1,.08.18.71.71,0,0,1-.41.58,1.45,1.45,0,0,1-.77.28.46.46,0,0,1-.37-.12.54.54,0,0,1-.15-.29,1.09,1.09,0,0,1,0-.26,1.41,1.41,0,0,1,.19-.39,3.3,3.3,0,0,1,.28-.35h-.12a.7.7,0,0,1-.52-.17.49.49,0,0,1-.18-.4.85.85,0,0,1,.37-.7,1.65,1.65,0,0,1,1-.27h0a1.37,1.37,0,0,0-1,.34,1,1,0,0,0-.34.66.44.44,0,0,0,.16.34.71.71,0,0,0,.5.17h.14a5.19,5.19,0,0,1,1.07-1,2,2,0,0,1,1-.41.25.25,0,0,1,.16.06.21.21,0,0,1,.07.13.7.7,0,0,1-.28.45,3.25,3.25,0,0,1-.81.46A3.43,3.43,0,0,1,13.9,26.24Zm0,0a3.75,3.75,0,0,0,1-.28,2.43,2.43,0,0,0,.77-.46.68.68,0,0,0,.25-.42.13.13,0,0,0-.06-.1.19.19,0,0,0-.15,0,1.28,1.28,0,0,0-.74.28,5.49,5.49,0,0,0-.81.72Z" transform="translate(-0.44 -0.58)"/><path class="cls-3" d="M14.85,27.31h0l.48-.46.12-.08.06-.06c.22-.26.42-.49.61-.69a5.47,5.47,0,0,1,.5-.47.68.68,0,0,1,.35-.17h.08a.11.11,0,0,1,0,.08c0,.08-.07.2-.24.36a3.93,3.93,0,0,1-.58.5,2.42,2.42,0,0,1-.55.29l-.16.21-.15.19-.18.25a1.38,1.38,0,0,0-.22.35h0c0,.05,0,.06.07.06a1.55,1.55,0,0,0,.59-.42h0l-.12.12c-.23.22-.39.32-.49.32a.06.06,0,0,1-.08,0,.17.17,0,0,1,0-.1.82.82,0,0,1,.21-.45,1.6,1.6,0,0,1,.28-.35h0a.83.83,0,0,0-.21.16Zm.88-.7a3.7,3.7,0,0,0,.51-.29,3.37,3.37,0,0,0,.58-.48c.16-.16.23-.28.23-.35a0,0,0,0,0,0-.06H17a.46.46,0,0,0-.27.13,3,3,0,0,0-.49.51,3.48,3.48,0,0,0-.49.52Z" transform="translate(-0.44 -0.58)"/><path class="cls-3" d="M15.66,27.31h0c.14-.14.25-.23.3-.29a.67.67,0,0,1,.15-.14h.17l-.14.18-.41.49a.16.16,0,0,0-.07.09h0a0,0,0,0,0,0,0h.05a.44.44,0,0,0,.24-.11,2.35,2.35,0,0,0,.29-.26l.23-.25.2-.21h.19a5.55,5.55,0,0,0-.35.46l-.13.15a.51.51,0,0,0-.09.16s0,.06.07.06a.38.38,0,0,0,.21-.1c.09-.07.21-.18.36-.32h0a3.79,3.79,0,0,1-.42.38.31.31,0,0,1-.16.06.11.11,0,0,1-.08,0,.14.14,0,0,1,0-.09.73.73,0,0,1,.2-.39l.18-.21h0c-.43.49-.72.73-.87.73a.09.09,0,0,1-.07,0,.14.14,0,0,1,0-.09.38.38,0,0,1,.12-.29l.28-.34h0Z" transform="translate(-0.44 -0.58)"/><path class="cls-3" d="M16.9,27.31h0l.44-.43a1.33,1.33,0,0,1,.19-.14l.5-.58a5.92,5.92,0,0,1,.56-.56c.2-.18.34-.27.43-.27a.12.12,0,0,1,.12.1v0a.68.68,0,0,1-.2.37,2.74,2.74,0,0,1-.51.45,4.39,4.39,0,0,1-.51.32.64.64,0,0,0-.22.14l-.4.5a.91.91,0,0,0-.25.42.06.06,0,0,0,0,.06h.06a.67.67,0,0,0,.3-.13,2,2,0,0,0,.31-.27,1.55,1.55,0,0,1,.14-.29c.06-.1.11-.15.13-.15h0a.46.46,0,0,1-.11.22.91.91,0,0,1-.18.21h0a.06.06,0,0,0,0,.06h.13L18,27.2h0l-.12.11a.18.18,0,0,1-.14.08h-.07a.14.14,0,0,1,0-.09c-.28.24-.47.36-.58.36a.09.09,0,0,1-.09,0,.15.15,0,0,1,0-.13.64.64,0,0,1,.15-.38l.31-.38h0l-.14.11-.23.22Zm.88-.7.16-.07a2.26,2.26,0,0,0,.26-.16l.36-.25a2.27,2.27,0,0,0,.28-.26,2,2,0,0,0,.17-.23l.08-.13v-.08a.1.1,0,0,0-.07-.09h0c-.08,0-.19.08-.36.24s-.34.37-.5.56Z" transform="translate(-0.44 -0.58)"/><path class="cls-4" d="M9.85,46.1H9.33v-2a1.84,1.84,0,0,1-.69.4V44a1.43,1.43,0,0,0,.45-.26,1,1,0,0,0,.34-.44h.42Z" transform="translate(-0.44 -0.58)"/><path class="cls-4" d="M10.66,45.47l.51-.06a.29.29,0,0,0,.1.23.3.3,0,0,0,.21.08.32.32,0,0,0,.27-.16,1.21,1.21,0,0,0,.15-.62.64.64,0,0,1-.5.23.72.72,0,0,1-.56-.25.89.89,0,0,1-.24-.66.92.92,0,0,1,.25-.67.89.89,0,0,1,1.32.07,1.67,1.67,0,0,1,.27,1.07,1.59,1.59,0,0,1-.28,1.08.88.88,0,0,1-.73.34.76.76,0,0,1-.52-.17A.85.85,0,0,1,10.66,45.47Zm1.19-1.16a.6.6,0,0,0-.11-.39.39.39,0,0,0-.28-.15.29.29,0,0,0-.24.12.55.55,0,0,0-.1.37.64.64,0,0,0,.11.4.29.29,0,0,0,.26.12.33.33,0,0,0,.26-.11A.58.58,0,0,0,11.85,44.31Z" transform="translate(-0.44 -0.58)"/><path class="cls-4" d="M21,46.1v-.56H19.92v-.46l1.19-1.75h.44v1.75h.35v.46h-.35v.56Zm0-1v-1l-.62,1Z" transform="translate(-0.44 -0.58)"/><path class="cls-4" d="M22.16,45.47l.51-.06a.38.38,0,0,0,.11.23.28.28,0,0,0,.2.08.35.35,0,0,0,.27-.11,1.23,1.23,0,0,0,.14-.62.65.65,0,0,1-.49.23.79.79,0,0,1-.57-.25,1.06,1.06,0,0,1-.23-.66,1,1,0,0,1,.25-.67.82.82,0,0,1,.64-.26.84.84,0,0,1,.68.32,1.64,1.64,0,0,1,.27,1.07,1.68,1.68,0,0,1-.28,1.09.94.94,0,0,1-.73.34.76.76,0,0,1-.52-.17A.85.85,0,0,1,22.16,45.47Zm1.2-1.16a.51.51,0,0,0-.12-.39.33.33,0,0,0-.27-.15.3.3,0,0,0-.24.12.76.76,0,0,0,0,.77.3.3,0,0,0,.26.12.33.33,0,0,0,.26-.13A.6.6,0,0,0,23.36,44.31Z" transform="translate(-0.44 -0.58)"/><path class="cls-5" d="M9.85,46.1H9.33v-2a1.84,1.84,0,0,1-.69.4V44a1.43,1.43,0,0,0,.45-.26,1,1,0,0,0,.34-.44h.42Z" transform="translate(-0.44 -0.58)"/><path class="cls-5" d="M10.66,45.47l.51-.06a.29.29,0,0,0,.1.23.3.3,0,0,0,.21.08.32.32,0,0,0,.27-.16,1.21,1.21,0,0,0,.15-.62.64.64,0,0,1-.5.23.72.72,0,0,1-.56-.25.89.89,0,0,1-.24-.66.92.92,0,0,1,.25-.67.89.89,0,0,1,1.32.07,1.67,1.67,0,0,1,.27,1.07,1.59,1.59,0,0,1-.28,1.08.88.88,0,0,1-.73.34.76.76,0,0,1-.52-.17A.85.85,0,0,1,10.66,45.47Zm1.19-1.16a.6.6,0,0,0-.11-.39.39.39,0,0,0-.28-.15.29.29,0,0,0-.24.12.55.55,0,0,0-.1.37.64.64,0,0,0,.11.4.29.29,0,0,0,.26.12.33.33,0,0,0,.26-.11A.58.58,0,0,0,11.85,44.31Z" transform="translate(-0.44 -0.58)"/><path class="cls-5" d="M21,46.1v-.56H19.92v-.46l1.19-1.75h.44v1.75h.35v.46h-.35v.56Zm0-1v-1l-.62,1Z" transform="translate(-0.44 -0.58)"/><path class="cls-5" d="M22.16,45.47l.51-.06a.38.38,0,0,0,.11.23.28.28,0,0,0,.2.08.35.35,0,0,0,.27-.11,1.23,1.23,0,0,0,.14-.62.65.65,0,0,1-.49.23.79.79,0,0,1-.57-.25,1.06,1.06,0,0,1-.23-.66,1,1,0,0,1,.25-.67.82.82,0,0,1,.64-.26.84.84,0,0,1,.68.32,1.64,1.64,0,0,1,.27,1.07,1.68,1.68,0,0,1-.28,1.09.94.94,0,0,1-.73.34.76.76,0,0,1-.52-.17A.85.85,0,0,1,22.16,45.47Zm1.2-1.16a.51.51,0,0,0-.12-.39.33.33,0,0,0-.27-.15.3.3,0,0,0-.24.12.76.76,0,0,0,0,.77.3.3,0,0,0,.26.12.33.33,0,0,0,.26-.13A.6.6,0,0,0,23.36,44.31Z" transform="translate(-0.44 -0.58)"/></svg>